<svg width="2400" height="1643" xmlns="http://www.w3.org/2000/svg" xmlns:xlink="http://www.w3.org/1999/xlink" xml:space="preserve" overflow="hidden"><g transform="translate(-462 -461)"><path d="M2106.14 659.481 1751.5 601.5" stroke="#C9C9C9" stroke-width="20.625" stroke-miterlimit="8" fill="none" fill-rule="evenodd"/><path d="M0 0 318.844 463.429" stroke="#FF7E79" stroke-width="20.625" stroke-miterlimit="8" fill="none" fill-rule="evenodd" transform="matrix(-1 0 0 1 1530.34 693.5)"/><path d="M0 0 671.197 57.1267" stroke="#C9C9C9" stroke-width="20.625" stroke-miterlimit="8" fill="none" fill-rule="evenodd" transform="matrix(-1 0 0 1 2012.7 1229.5)"/><path d="M0 0 237.005 169.965" stroke="#FF7E79" stroke-width="20.625" stroke-miterlimit="8" fill="none" fill-rule="evenodd" transform="matrix(-1 0 0 1 1540.5 1024.5)"/><path d="M2049.96 1137.34 1799.5 1024.5" stroke="#FF7E79" stroke-width="20.625" stroke-miterlimit="8" fill="none" fill-rule="evenodd"/><path d="M0 0 293.419 245.804" stroke="#FF7E79" stroke-width="20.625" stroke-miterlimit="8" fill="none" fill-rule="evenodd" transform="matrix(-1 0 0 1 2049.92 1321.5)"/><path d="M1303.5 1378.5 1573.65 1567.18" stroke="#FF7E79" stroke-width="20.625" stroke-miterlimit="8" fill="none" fill-rule="evenodd"/><path d="M1713.5 693.5 2141.96 1099.8" stroke="#FF7E79" stroke-width="20.625" stroke-miterlimit="8" fill="none" fill-rule="evenodd"/><path d="M2209.5 811.5 2233.76 1137.84" stroke="#404040" stroke-width="20.625" stroke-miterlimit="8" fill="none" fill-rule="evenodd"/><path d="M0 0 174.22 115.04" stroke="#404040" stroke-width="20.625" stroke-miterlimit="8" fill="none" fill-rule="evenodd" transform="matrix(-1 0 0 1 2446.72 1114.5)"/><path d="M2596.66 1465.18 2234.5 1321.5" stroke="#404040" stroke-width="20.625" stroke-miterlimit="8" fill="none" fill-rule="evenodd"/><path d="M2178.69 1710.76 2142.5 1359.5" stroke="#404040" stroke-width="20.625" stroke-miterlimit="8" fill="none" fill-rule="evenodd"/><path d="M1119.42 1194.89 856.5 827.5" stroke="#404040" stroke-width="20.625" stroke-miterlimit="8" fill="none" fill-rule="evenodd"/><path d="M1081.22 1286.35 732.5 1208.5" stroke="#404040" stroke-width="20.625" stroke-miterlimit="8" fill="none" fill-rule="evenodd"/><path d="M0 0 206.028 219.411" stroke="#404040" stroke-width="20.625" stroke-miterlimit="8" fill="none" fill-rule="evenodd" transform="matrix(-1 0 0 1 1119.53 1378.5)"/><path d="M2307.5 790.5 2502.81 938.95" stroke="#C9C9C9" stroke-width="20.625" stroke-miterlimit="8" fill="none" fill-rule="evenodd"/><path d="M0 0 583.806 30.7332" stroke="#C9C9C9" stroke-width="20.625" stroke-miterlimit="8" fill="none" fill-rule="evenodd" transform="matrix(1 0 0 -1 951.5 1689.23)"/><path d="M913.5 1781.5 1179.5 1947.32" stroke="#C9C9C9" stroke-width="20.625" stroke-miterlimit="8" fill="none" fill-rule="evenodd"/><path d="M0 0 162.451 132.874" stroke="#C9C9C9" stroke-width="20.625" stroke-miterlimit="8" fill="none" fill-rule="evenodd" transform="matrix(1 0 0 -1 1410.5 1883.37)"/><path d="M1178.8 1946.76C1187.69 1875.56 1252.62 1825.05 1323.82 1833.94 1395.02 1842.84 1445.53 1907.76 1436.64 1978.96 1427.75 2050.16 1362.82 2100.68 1291.62 2091.78 1220.42 2082.89 1169.91 2017.96 1178.8 1946.76Z" stroke="#7C7C7C" stroke-width="20.625" stroke-miterlimit="8" fill="#FFFFFF" fill-rule="evenodd"/><path d="M1491.5 601.5C1491.5 529.703 1549.7 471.5 1621.5 471.5 1693.3 471.5 1751.5 529.703 1751.5 601.5 1751.5 673.297 1693.3 731.5 1621.5 731.5 1549.7 731.5 1491.5 673.297 1491.5 601.5Z" stroke="#404040" stroke-width="20.625" stroke-miterlimit="8" fill="#FF7E79" fill-rule="evenodd"/><path d="M634.5 735.5C634.5 663.703 692.703 605.5 764.5 605.5 836.297 605.5 894.5 663.703 894.5 735.5 894.5 807.297 836.297 865.5 764.5 865.5 692.703 865.5 634.5 807.297 634.5 735.5Z" stroke="#404040" stroke-width="20.625" stroke-miterlimit="8" fill="#C9C9C9" fill-rule="evenodd"/><path d="M1081.5 1286.5C1081.5 1214.7 1139.7 1156.5 1211.5 1156.5 1283.3 1156.5 1341.5 1214.7 1341.5 1286.5 1341.5 1358.3 1283.3 1416.5 1211.5 1416.5 1139.7 1416.5 1081.5 1358.3 1081.5 1286.5Z" stroke="#404040" stroke-width="20.625" stroke-miterlimit="8" fill="#9DC3E6" fill-rule="evenodd"/><text fill="#FFFFFF" font-family="Calibri,Calibri_MSFontService,sans-serif" font-style="italic" font-weight="400" font-size="202" transform="matrix(1 0 0 1 1187.5 1354)">i</text><path d="M2012.5 1229.5C2012.5 1157.7 2070.7 1099.5 2142.5 1099.5 2214.3 1099.5 2272.5 1157.7 2272.5 1229.5 2272.5 1301.3 2214.3 1359.5 2142.5 1359.5 2070.7 1359.5 2012.5 1301.3 2012.5 1229.5Z" stroke="#404040" stroke-width="20.625" stroke-miterlimit="8" fill="#9DC3E6" fill-rule="evenodd"/><text fill="#FFFFFF" font-family="Calibri,Calibri_MSFontService,sans-serif" font-style="italic" font-weight="400" font-size="202" transform="matrix(1 0 0 1 2117.68 1297)">j</text><path d="M1540.5 1024.5C1540.5 952.703 1598.48 894.5 1670 894.5 1741.52 894.5 1799.5 952.703 1799.5 1024.5 1799.5 1096.3 1741.52 1154.5 1670 1154.5 1598.48 1154.5 1540.5 1096.3 1540.5 1024.5Z" stroke="#404040" stroke-width="20.625" stroke-miterlimit="8" fill="#FF7E79" fill-rule="evenodd"/><path d="M1535.5 1658.5C1535.5 1586.7 1593.7 1528.5 1665.5 1528.5 1737.3 1528.5 1795.5 1586.7 1795.5 1658.5 1795.5 1730.3 1737.3 1788.5 1665.5 1788.5 1593.7 1788.5 1535.5 1730.3 1535.5 1658.5Z" stroke="#404040" stroke-width="20.625" stroke-miterlimit="8" fill="#FF7E79" fill-rule="evenodd"/><path d="M472.5 1208.5C472.5 1136.7 530.703 1078.5 602.5 1078.5 674.297 1078.5 732.5 1136.7 732.5 1208.5 732.5 1280.3 674.297 1338.5 602.5 1338.5 530.703 1338.5 472.5 1280.3 472.5 1208.5Z" stroke="#404040" stroke-width="20.625" stroke-miterlimit="8" fill="#C9C9C9" fill-rule="evenodd"/><path d="M2595.77 1464.35C2614.74 1395.15 2686.22 1354.43 2755.42 1373.4 2824.62 1392.37 2865.34 1463.85 2846.37 1533.05 2827.4 1602.25 2755.92 1642.97 2686.72 1624 2617.52 1605.03 2576.8 1533.55 2595.77 1464.35Z" stroke="#404040" stroke-width="20.625" stroke-miterlimit="8" fill="#C9C9C9" fill-rule="evenodd"/><path d="M2100.49 1772.36C2134.9 1709.39 2213.83 1686.24 2276.8 1720.64 2339.77 1755.04 2362.92 1833.98 2328.52 1896.95 2294.11 1959.91 2215.18 1983.07 2152.21 1948.67 2089.24 1914.26 2066.09 1835.33 2100.49 1772.36Z" stroke="#404040" stroke-width="20.625" stroke-miterlimit="8" fill="#C9C9C9" fill-rule="evenodd"/><path d="M691.5 1689.5C691.5 1617.7 749.703 1559.5 821.5 1559.5 893.297 1559.5 951.5 1617.7 951.5 1689.5 951.5 1761.3 893.297 1819.5 821.5 1819.5 749.703 1819.5 691.5 1761.3 691.5 1689.5Z" stroke="#404040" stroke-width="20.625" stroke-miterlimit="8" fill="#C9C9C9" fill-rule="evenodd"/><path d="M0 0 3.61542 112.437" stroke="#C9C9C9" stroke-width="20.625" stroke-miterlimit="8" fill="none" fill-rule="evenodd" transform="matrix(-1 0 0 1 2605.12 818.5)"/><path d="M0 0 130.667 34.0293" stroke="#C9C9C9" stroke-width="20.625" stroke-miterlimit="8" fill="none" fill-rule="evenodd" transform="matrix(1 0 0 -1 2361.5 707.529)"/><path d="M2105.97 658.695C2119.37 588.204 2187.38 541.922 2257.87 555.321 2328.36 568.72 2374.64 636.727 2361.24 707.219 2347.84 777.71 2279.84 823.992 2209.35 810.593 2138.85 797.193 2092.57 729.186 2105.97 658.695Z" stroke="#404040" stroke-width="20.625" stroke-miterlimit="8" fill="#C9C9C9" fill-rule="evenodd"/><path d="M2437.71 1014.66C2459.63 946.341 2532.79 908.725 2601.11 930.646 2669.44 952.568 2707.05 1025.72 2685.13 1094.05 2663.21 1162.37 2590.05 1199.99 2521.73 1178.07 2453.41 1156.14 2415.79 1082.99 2437.71 1014.66Z" stroke="#404040" stroke-width="20.625" stroke-miterlimit="8" fill="#C9C9C9" fill-rule="evenodd"/><path d="M2491.91 673.189C2500.8 601.989 2565.73 551.478 2636.93 560.37 2708.13 569.261 2758.64 634.189 2749.75 705.389 2740.86 776.59 2675.93 827.101 2604.73 818.209 2533.53 809.317 2483.02 744.39 2491.91 673.189Z" stroke="#7C7C7C" stroke-width="20.625" stroke-miterlimit="8" fill="#FFFFFF" fill-rule="evenodd"/></g></svg>