<svg width="2360" height="1601" xmlns="http://www.w3.org/2000/svg" xmlns:xlink="http://www.w3.org/1999/xlink" xml:space="preserve" overflow="hidden"><g transform="translate(-135 5)"><path d="M1778.49 257.445 1503.5 135.5" stroke="#C9C9C9" stroke-width="20.625" stroke-miterlimit="8" fill="none" fill-rule="evenodd"/><path d="M0 0 397.077 421.132" stroke="#FF7E79" stroke-width="20.625" stroke-miterlimit="8" fill="none" fill-rule="evenodd" transform="matrix(-1 0 0 1 1281.58 227.5)"/><path d="M0 0 671.197 57.1267" stroke="#C9C9C9" stroke-width="20.625" stroke-miterlimit="8" fill="none" fill-rule="evenodd" transform="matrix(-1 0 0 1 1685.7 721.5)"/><path d="M0 0 237.005 169.965" stroke="#FF7E79" stroke-width="20.625" stroke-miterlimit="8" fill="none" fill-rule="evenodd" transform="matrix(-1 0 0 1 1213.5 516.5)"/><path d="M1723.96 629.338 1473.5 516.5" stroke="#FF7E79" stroke-width="20.625" stroke-miterlimit="8" fill="none" fill-rule="evenodd"/><path d="M0 0 293.419 245.804" stroke="#FF7E79" stroke-width="20.625" stroke-miterlimit="8" fill="none" fill-rule="evenodd" transform="matrix(-1 0 0 1 1723.92 813.5)"/><path d="M976.5 870.5 1246.65 1059.18" stroke="#FF7E79" stroke-width="20.625" stroke-miterlimit="8" fill="none" fill-rule="evenodd"/><path d="M1465.5 227.5 1815.73 591.505" stroke="#FF7E79" stroke-width="20.625" stroke-miterlimit="8" fill="none" fill-rule="evenodd"/><path d="M1892.5 401.5 1907.5 629.427" stroke="#9DC3E6" stroke-width="20.625" stroke-miterlimit="8" fill="none" fill-rule="evenodd"/><path d="M2136.37 733.651 1945.5 721.5" stroke="#9DC3E6" stroke-width="20.625" stroke-miterlimit="8" fill="none" fill-rule="evenodd"/><path d="M2245.27 1026.42 1907.5 813.5" stroke="#9DC3E6" stroke-width="20.625" stroke-miterlimit="8" fill="none" fill-rule="evenodd"/><path d="M1851.69 1202.76 1815.5 851.5" stroke="#9DC3E6" stroke-width="20.625" stroke-miterlimit="8" fill="none" fill-rule="evenodd"/><path d="M792.419 686.892 529.5 319.5" stroke="#9DC3E6" stroke-width="20.625" stroke-miterlimit="8" fill="none" fill-rule="evenodd"/><path d="M754.22 778.354 405.5 700.5" stroke="#9DC3E6" stroke-width="20.625" stroke-miterlimit="8" fill="none" fill-rule="evenodd"/><path d="M0 0 206.028 219.411" stroke="#9DC3E6" stroke-width="20.625" stroke-miterlimit="8" fill="none" fill-rule="evenodd" transform="matrix(-1 0 0 1 792.528 870.5)"/><path d="M1988.5 374.5 2192.91 558.685" stroke="#C9C9C9" stroke-width="20.625" stroke-miterlimit="8" fill="none" fill-rule="evenodd"/><path d="M0 0 583.806 30.7332" stroke="#C9C9C9" stroke-width="20.625" stroke-miterlimit="8" fill="none" fill-rule="evenodd" transform="matrix(1 0 0 -1 624.5 1182.23)"/><path d="M586.5 1273.5 852.497 1439.32" stroke="#C9C9C9" stroke-width="20.625" stroke-miterlimit="8" fill="none" fill-rule="evenodd"/><path d="M0 0 162.451 132.874" stroke="#C9C9C9" stroke-width="20.625" stroke-miterlimit="8" fill="none" fill-rule="evenodd" transform="matrix(1 0 0 -1 1084.5 1375.37)"/><path d="M852.057 1439C860.949 1367.8 925.877 1317.29 997.077 1326.18 1068.28 1335.07 1118.79 1400 1109.9 1471.2 1101.01 1542.4 1036.08 1592.91 964.877 1584.02 893.677 1575.13 843.166 1510.2 852.057 1439Z" stroke="#7C7C7C" stroke-width="20.625" stroke-miterlimit="8" fill="#C9C9C9" fill-rule="evenodd"/><path d="M1243.5 135.5C1243.5 63.7029 1301.7 5.5 1373.5 5.5 1445.3 5.5 1503.5 63.7029 1503.5 135.5 1503.5 207.297 1445.3 265.5 1373.5 265.5 1301.7 265.5 1243.5 207.297 1243.5 135.5Z" stroke="#404040" stroke-width="20.625" stroke-miterlimit="8" fill="#FF7E79" fill-rule="evenodd"/><path d="M307.5 227.5C307.5 155.703 365.703 97.5001 437.5 97.5001 509.297 97.5001 567.5 155.703 567.5 227.5 567.5 299.297 509.297 357.5 437.5 357.5 365.703 357.5 307.5 299.297 307.5 227.5Z" stroke="#404040" stroke-width="20.625" stroke-miterlimit="8" fill="#9DC3E6" fill-rule="evenodd"/><path d="M754.5 778.5C754.5 706.703 812.703 648.5 884.5 648.5 956.297 648.5 1014.5 706.703 1014.5 778.5 1014.5 850.297 956.297 908.5 884.5 908.5 812.703 908.5 754.5 850.297 754.5 778.5Z" stroke="#404040" stroke-width="20.625" stroke-miterlimit="8" fill="#FFFFFF" fill-rule="evenodd"/><text font-family="Calibri,Calibri_MSFontService,sans-serif" font-style="italic" font-weight="400" font-size="202" transform="matrix(1 0 0 1 860.753 846)">i</text><path d="M1685.5 721.5C1685.5 649.703 1743.7 591.5 1815.5 591.5 1887.3 591.5 1945.5 649.703 1945.5 721.5 1945.5 793.297 1887.3 851.5 1815.5 851.5 1743.7 851.5 1685.5 793.297 1685.5 721.5Z" stroke="#404040" stroke-width="20.625" stroke-miterlimit="8" fill="#FFFFFF" fill-rule="evenodd"/><text font-family="Calibri,Calibri_MSFontService,sans-serif" font-style="italic" font-weight="400" font-size="202" transform="matrix(1 0 0 1 1790.93 789)">j</text><path d="M1213.5 516.5C1213.5 444.703 1271.7 386.5 1343.5 386.5 1415.3 386.5 1473.5 444.703 1473.5 516.5 1473.5 588.297 1415.3 646.5 1343.5 646.5 1271.7 646.5 1213.5 588.297 1213.5 516.5Z" stroke="#404040" stroke-width="20.625" stroke-miterlimit="8" fill="#FF7E79" fill-rule="evenodd"/><path d="M1208.5 1151.5C1208.5 1079.7 1266.7 1021.5 1338.5 1021.5 1410.3 1021.5 1468.5 1079.7 1468.5 1151.5 1468.5 1223.3 1410.3 1281.5 1338.5 1281.5 1266.7 1281.5 1208.5 1223.3 1208.5 1151.5Z" stroke="#404040" stroke-width="20.625" stroke-miterlimit="8" fill="#FF7E79" fill-rule="evenodd"/><path d="M145.5 700.5C145.5 628.703 203.703 570.5 275.5 570.5 347.297 570.5 405.5 628.703 405.5 700.5 405.5 772.297 347.297 830.5 275.5 830.5 203.703 830.5 145.5 772.297 145.5 700.5Z" stroke="#404040" stroke-width="20.625" stroke-miterlimit="8" fill="#9DC3E6" fill-rule="evenodd"/><path d="M2244.64 1025.83C2283.09 965.254 2363.37 947.314 2423.95 985.766 2484.53 1024.22 2502.47 1104.5 2464.02 1165.08 2425.57 1225.66 2345.28 1243.6 2284.7 1205.15 2224.12 1166.7 2206.18 1086.42 2244.64 1025.83Z" stroke="#404040" stroke-width="20.625" stroke-miterlimit="8" fill="#9DC3E6" fill-rule="evenodd"/><path d="M1773.75 1264.6C1808.15 1201.63 1887.09 1178.47 1950.05 1212.88 2013.02 1247.28 2036.18 1326.22 2001.77 1389.18 1967.37 1452.15 1888.43 1475.31 1825.47 1440.9 1762.5 1406.5 1739.34 1327.56 1773.75 1264.6Z" stroke="#404040" stroke-width="20.625" stroke-miterlimit="8" fill="#9DC3E6" fill-rule="evenodd"/><path d="M364.5 1181.5C364.5 1109.7 422.703 1051.5 494.5 1051.5 566.297 1051.5 624.5 1109.7 624.5 1181.5 624.5 1253.3 566.297 1311.5 494.5 1311.5 422.703 1311.5 364.5 1253.3 364.5 1181.5Z" stroke="#404040" stroke-width="20.625" stroke-miterlimit="8" fill="#9DC3E6" fill-rule="evenodd"/><path d="M2277.5 442.5 2291.12 550.532" stroke="#C9C9C9" stroke-width="20.625" stroke-miterlimit="8" fill="none" fill-rule="evenodd"/><path d="M2036.5 287.5 2165.17 297.324" stroke="#C9C9C9" stroke-width="20.625" stroke-miterlimit="8" fill="none" fill-rule="evenodd"/><path d="M1777.81 257.193C1786.1 185.919 1850.59 134.857 1921.87 143.143 1993.14 151.428 2044.2 215.923 2035.92 287.197 2027.63 358.47 1963.14 409.532 1891.86 401.247 1820.59 392.962 1769.53 328.466 1777.81 257.193Z" stroke="#404040" stroke-width="20.625" stroke-miterlimit="8" fill="#9DC3E6" fill-rule="evenodd"/><path d="M2127.62 634.092C2149.54 565.769 2222.7 528.153 2291.02 550.074 2359.34 571.995 2396.96 645.152 2375.04 713.475 2353.12 781.798 2279.96 819.414 2211.64 797.493 2143.31 775.572 2105.7 702.415 2127.62 634.092Z" stroke="#404040" stroke-width="20.625" stroke-miterlimit="8" fill="#9DC3E6" fill-rule="evenodd"/><path d="M2164.58 297.022C2173.48 225.821 2238.4 175.31 2309.6 184.202 2380.8 193.094 2431.31 258.021 2422.42 329.222 2413.53 400.422 2348.6 450.933 2277.4 442.042 2206.2 433.15 2155.69 368.222 2164.58 297.022Z" stroke="#7C7C7C" stroke-width="20.625" stroke-miterlimit="8" fill="#C9C9C9" fill-rule="evenodd"/></g></svg>